<?xml version="1.0" encoding="UTF-8" standalone="no"?>
<!-- Created with Inkscape (http://www.inkscape.org/) -->

<svg
   xmlns:dc="http://purl.org/dc/elements/1.1/"
   xmlns:cc="http://creativecommons.org/ns#"
   xmlns:rdf="http://www.w3.org/1999/02/22-rdf-syntax-ns#"
   xmlns:svg="http://www.w3.org/2000/svg"
   xmlns="http://www.w3.org/2000/svg"
   xmlns:sodipodi="http://sodipodi.sourceforge.net/DTD/sodipodi-0.dtd"
   xmlns:inkscape="http://www.inkscape.org/namespaces/inkscape"
   width="640"
   height="640"
   viewBox="0 0 169.33333 169.33334"
   version="1.1"
   id="svg8"
   inkscape:version="0.92.1 unknown"
   sodipodi:docname="ribbon.svg">
  <defs
     id="defs2" />
  <sodipodi:namedview
     id="base"
     pagecolor="#ffffff"
     bordercolor="#666666"
     borderopacity="1.0"
     inkscape:pageopacity="0.0"
     inkscape:pageshadow="2"
     inkscape:zoom="0.98994949"
     inkscape:cx="349.69709"
     inkscape:cy="522.8071"
     inkscape:document-units="mm"
     inkscape:current-layer="layer9"
     showgrid="false"
     units="px"
     inkscape:window-width="1280"
     inkscape:window-height="733"
     inkscape:window-x="0"
     inkscape:window-y="24"
     inkscape:window-maximized="1" />
  <metadata
     id="metadata5">
    <rdf:RDF>
      <cc:Work
         rdf:about="">
        <dc:format>image/svg+xml</dc:format>
        <dc:type
           rdf:resource="http://purl.org/dc/dcmitype/StillImage" />
        <dc:title></dc:title>
      </cc:Work>
    </rdf:RDF>
  </metadata>
  <g
     inkscape:label="Layer 1"
     inkscape:groupmode="layer"
     id="layer1"
     transform="translate(0,-127.66665)">
    <path
       style="fill:none;stroke:#000000;stroke-width:0.26458332px;stroke-linecap:butt;stroke-linejoin:miter;stroke-opacity:1"
       d="m 71.093694,142.5182 2.405425,-3.20724 1.202714,0.80181 2.672694,-2.93996 0.935445,1.20271 3.741772,-2.27179 0.267268,1.46998 3.474506,-2.00452 0.935442,1.46998 2.405425,-1.06908 1.469983,0.40091 0.400905,1.20271 2.271791,-1.06908 1.737252,0.80181 v 1.46998 l 1.870887,-0.80181 2.271789,1.20272 -0.668173,1.06908 h 3.207231 l 0.80181,1.20271 -0.66817,1.06908 3.0736,0.8018 0.93544,1.06908 -1.06908,0.66818 2.80633,1.33634 0.80181,1.20272 -1.06908,0.93544 2.53907,1.60362 0.26726,1.20271 -0.8018,0.80181 1.87088,2.27179 v 1.20271 l -1.06908,0.40091 1.73726,2.53906 v 1.20271 l -1.60362,0.13363 1.46998,2.13816 v 1.60362 l -1.73725,0.4009 0.93544,2.2718 -0.66817,1.60361 -1.20271,-0.13363 0.33408,2.87314 -0.80181,1.00227 -1.46998,-0.46773 0.0668,2.73951 -1.20271,1.20272 -1.33635,-0.66818 0.20045,1.06908 -0.66817,1.80407 -1.1359,0.80181 -1.13589,-0.73499 -0.86863,2.27179 -1.536798,0.93544 -1.002263,-0.86862 -1.135893,1.80407 -2.004523,0.86862 -0.668174,-1.20271 -1.737251,2.07134 -1.737252,0.26727 -0.53454,-1.26953 -1.536801,1.33634 -1.202711,0.33409 h -1.069078 l -0.267269,-1.33635 -1.5368,0.93545 -1.135896,0.4009 -1.403165,-0.4009 v -1.40317 l -2.071338,1.00227 -2.071341,-0.46773 0.06682,-1.40316 -1.870887,0.46772 -1.603616,-0.26727 -0.801809,-0.60136 0.734991,-1.40316 h -2.873147 l -1.403165,-0.93545 0.668173,-1.13589 -2.873147,-0.66818 -0.935443,-1.20271 0.868625,-1.00226 -2.672694,-1.06908 -0.734991,-1.20271 1.135896,-1.06908 -2.138156,-1.00226 -0.935445,-1.46998 1.135896,-1.00226 -2.071339,-1.67044 -0.267268,-1.67043 1.336346,-0.46772 -1.737251,-2.13816 v -1.46998 l 1.336347,-0.46772 -1.202714,-1.67044 v -1.9377 l 0.53454,-0.26727 h 1.069078 l -0.801809,-1.80407 -0.06682,-1.20271 0.534541,-1.00226 1.5368,0.26727 -0.601358,-2.07134 0.868627,-1.93771 1.336347,0.40091 v -2.20498 l 1.069078,-1.67043 1.469983,0.60136 0.133635,-2.07134 1.469983,-1.5368 z"
       id="path4496"
       inkscape:connector-curvature="0" />
  </g>
  <g
     inkscape:groupmode="layer"
     id="layer8"
     inkscape:label="Layer 8">
    <path
       style="fill:none;stroke:#000000;stroke-width:0.26458332px;stroke-linecap:butt;stroke-linejoin:miter;stroke-opacity:1"
       d="m 76.03818,36.233107 6.481286,-15.301179 5.479026,-0.400905 9.421249,19.443859 -5.078122,0.534538 -4.343127,-7.14946 -7.015826,0.200454 -3.006781,5.81311 -2.939965,-1.202711 z"
       id="path4536"
       inkscape:connector-curvature="0" />
  </g>
  <g
     inkscape:groupmode="layer"
     id="layer9"
     inkscape:label="Layer 9">
    <path
       style="fill:none;stroke:#000000;stroke-width:0.26458332px;stroke-linecap:butt;stroke-linejoin:miter;stroke-opacity:1"
       d="M 81.650839,30.286362 87.53077,30.019093 85.19216,24.740518 Z"
       id="path4539"
       inkscape:connector-curvature="0" />
  </g>
  <g
     inkscape:groupmode="layer"
     id="layer2"
     inkscape:label="Layer 2">
    <path
       style="fill:none;stroke:#000000;stroke-width:0.26458332px;stroke-linecap:butt;stroke-linejoin:miter;stroke-opacity:1"
       d="m 71.494599,22.66918 -3.006783,9.354433 2.204974,8.953529 5.746294,5.679477 8.619443,3.006783 8.753075,-1.403164 6.949008,-5.011304 3.27405,-6.347653 0.60136,-6.748555 -2.07134,-6.481286 -6.748555,-6.481286 -8.819896,-2.405425 -8.619442,1.870886 z"
       id="path4499"
       inkscape:connector-curvature="0" />
  </g>
  <g
     inkscape:groupmode="layer"
     id="layer3"
     inkscape:label="Layer 3">
    <path
       style="fill:none;stroke:#000000;stroke-width:0.26458332px;stroke-linecap:butt;stroke-linejoin:miter;stroke-opacity:1"
       d="m 81.91811,13.849285 -8.619442,4.744034 -5.345393,7.41673 -0.334086,11.358954 4.87767,7.951269 6.882191,4.476763 11.091685,1.135896 8.686257,-3.942225 5.011308,-6.214015 2.00452,-7.550364 -1.06908,-7.349913 -4.87767,-7.216277 -8.285352,-4.543582 z"
       id="path4502"
       inkscape:connector-curvature="0" />
  </g>
  <g
     inkscape:groupmode="layer"
     id="layer4"
     inkscape:label="Layer 4">
    <path
       style="fill:none;stroke:#000000;stroke-width:0.26458332px;stroke-linecap:butt;stroke-linejoin:miter;stroke-opacity:1"
       d="m 58.866113,78.929414 11.893495,-3.274052 5.545841,10.356694 7.416731,-14.232101 2.472243,-6.280833 -2.204974,-6.347653 -0.06684,-2.87315 -1.403165,-0.400899 v -1.40317 l -2.071338,1.00227 -2.071341,-0.46773 0.06682,-1.40316 -1.870887,0.46772 -2.405425,-0.868629 0.734991,-1.403163 h -2.873147 v 0 l -1.870869,2.138156 -4.744032,12.093946 z"
       id="path4505"
       inkscape:connector-curvature="0" />
  </g>
  <g
     inkscape:groupmode="layer"
     id="layer5"
     inkscape:label="Layer 5">
    <path
       style="fill:none;stroke:#000000;stroke-width:0.26458332px;stroke-linecap:butt;stroke-linejoin:miter;stroke-opacity:1"
       d="m 86.194423,65.499122 9.888971,20.64657 5.412206,-10.356694 12.02713,3.140416 -6.81537,-13.363477 -5.6795,-13.563928 -1.536799,0.93544 -1.002263,-0.868619 -1.135894,1.804069 -2.004523,0.868619 -0.668173,-1.202708 -1.737251,2.071338 -1.737252,0.267272 -0.53454,-1.269529 -1.536801,1.336339 -2.271789,0.334089 -0.267269,-1.33635 -2.672696,1.33635 z"
       id="path4508"
       inkscape:connector-curvature="0" />
  </g>
  <g
     inkscape:groupmode="layer"
     id="layer6"
     inkscape:label="Layer 6">
    <path
       style="fill:none;stroke:#000000;stroke-width:0.26458332px;stroke-linecap:butt;stroke-linejoin:miter;stroke-opacity:1"
       d="m 72.029118,51.801558 v 0 0 l 0.133654,1.336347 -4.276312,11.559408 -5.278575,11.225321 9.087165,-2.271792 4.409948,8.753075 9.087162,-19.243405 -1.202711,-4.009043 -1.470004,-3.274049 -3e-6,-1.40317 -2.071335,1.00227 -2.071344,-0.46773 0.06682,-1.40316 -1.870888,0.46772 -2.405425,-0.868629 0.734994,-1.403163 z"
       id="path4511"
       inkscape:connector-curvature="0" />
  </g>
  <g
     inkscape:groupmode="layer"
     id="layer7"
     inkscape:label="Layer 7">
    <path
       style="fill:none;stroke:#000000;stroke-width:0.26458332px;stroke-linecap:butt;stroke-linejoin:miter;stroke-opacity:1"
       d="m 99.491061,52.937449 10.356719,23.052 -9.35444,-2.338607 -4.610397,8.753075 -7.082644,-14.633006 -2.338607,-6.815373 -1.403186,-5.078118 1.5368,-0.935451 0.267269,1.33635 2.271789,-0.334089 1.536801,-1.336339 0.53454,1.269529 1.737252,-0.267272 1.737251,-2.071338 0.668173,1.202708 2.004523,-0.868619 1.135894,-1.804069 z"
       id="path4514"
       inkscape:connector-curvature="0" />
  </g>
</svg>
