<?xml version="1.0" encoding="UTF-8" standalone="no"?>
<!-- Created with Inkscape (http://www.inkscape.org/) -->

<svg
   xmlns:dc="http://purl.org/dc/elements/1.1/"
   xmlns:cc="http://creativecommons.org/ns#"
   xmlns:rdf="http://www.w3.org/1999/02/22-rdf-syntax-ns#"
   xmlns:svg="http://www.w3.org/2000/svg"
   xmlns="http://www.w3.org/2000/svg"
   xmlns:sodipodi="http://sodipodi.sourceforge.net/DTD/sodipodi-0.dtd"
   xmlns:inkscape="http://www.inkscape.org/namespaces/inkscape"
   width="640"
   height="640"
   viewBox="0 0 169.33333 169.33334"
   version="1.1"
   id="svg5186"
   inkscape:version="0.92.1 unknown"
   sodipodi:docname="throphy.svg">
  <defs
     id="defs5180" />
  <sodipodi:namedview
     id="base"
     pagecolor="#ffffff"
     bordercolor="#666666"
     borderopacity="1.0"
     inkscape:pageopacity="0.0"
     inkscape:pageshadow="2"
     inkscape:zoom="0.7"
     inkscape:cx="471.15659"
     inkscape:cy="258.38896"
     inkscape:document-units="mm"
     inkscape:current-layer="layer1"
     showgrid="false"
     units="px"
     inkscape:window-width="1280"
     inkscape:window-height="733"
     inkscape:window-x="0"
     inkscape:window-y="24"
     inkscape:window-maximized="1" />
  <metadata
     id="metadata5183">
    <rdf:RDF>
      <cc:Work
         rdf:about="">
        <dc:format>image/svg+xml</dc:format>
        <dc:type
           rdf:resource="http://purl.org/dc/dcmitype/StillImage" />
        <dc:title></dc:title>
      </cc:Work>
    </rdf:RDF>
  </metadata>
  <g
     inkscape:label="Layer 1"
     inkscape:groupmode="layer"
     id="layer1"
     transform="translate(0,-127.66663)">
    <path
       style="fill:none;stroke:#000000;stroke-width:0.32664132px;stroke-linecap:butt;stroke-linejoin:miter;stroke-opacity:1"
       d="m 52.962392,145.8786 h 12.193249 l 0.232251,-1.17192 36.115248,0.35157 -0.23225,1.05473 12.07712,-0.1172 -2.6709,7.14869 -5.57405,7.85183 -3.9483,3.04698 -5.690184,1.99224 -3.599911,0.23439 -2.787029,2.46103 1.741892,0.23438 0.406442,0.99612 -0.638693,1.05473 -2.554778,0.23438 1.85802,6.8557 2.322525,8.49639 3.077342,0.0587 -0.0581,14.35596 3.13541,0.11719 -0.0581,3.75013 -30.192816,-0.1172 0.116121,-3.75012 4.064416,0.11719 v -14.7662 l 3.019283,0.23439 4.122479,-15.58647 -2.148333,0.23438 -1.1032,-1.28911 0.522567,-1.05472 0.754821,-0.23438 -2.903155,-2.40243 -4.703112,-0.29297 -6.212749,-3.10557 -4.296668,-4.10172 -4.238607,-7.50025 z"
       id="path5199"
       inkscape:connector-curvature="0" />
  </g>
  <g
     inkscape:groupmode="layer"
     id="layer6"
     inkscape:label="Layer 2">
    <path
       style="fill:none;stroke:#000000;stroke-width:0.32664132px;stroke-linecap:butt;stroke-linejoin:miter;stroke-opacity:1"
       d="m 65.445958,20.497197 h -8.999783 l 1.858021,4.27749 3.599912,5.508 4.180542,3.691532 3.54185,1.699276 2.903154,0.585956 -3.716038,-5.976764 -2.845092,-7.676043 z"
       id="path5202"
       inkscape:connector-curvature="0" />
  </g>
  <g
     inkscape:groupmode="layer"
     id="layer7"
     inkscape:label="Layer 3">
    <path
       style="fill:none;stroke:#000000;stroke-width:0.32664132px;stroke-linecap:butt;stroke-linejoin:miter;stroke-opacity:1"
       d="m 100.98057,20.438602 8.99979,0.117186 -2.32253,5.449403 -3.71603,5.156427 -3.83217,3.046978 -4.703114,1.875064 -1.45158,0.117187 3.65797,-5.683788 2.14834,-4.980639 z"
       id="path5205"
       inkscape:connector-curvature="0" />
    <path
       style="fill:none;stroke:#000000;stroke-width:0.32664132px;stroke-linecap:butt;stroke-linejoin:miter;stroke-opacity:1"
       d="m 68.23297,73.350625 30.134756,0.117199 -0.0581,3.750127 -30.192808,-0.117199 z"
       id="path5207"
       inkscape:connector-curvature="0" />
  </g>
  <g
     inkscape:groupmode="layer"
     id="layer8"
     inkscape:label="Layer 4">
    <path
       style="fill:none;stroke:#000000;stroke-width:0.32664132px;stroke-linecap:butt;stroke-linejoin:miter;stroke-opacity:1"
       d="m 75.316683,60.92826 -0.05807,10.312854 H 91.980791 V 60.811069 Z"
       id="path5210"
       inkscape:connector-curvature="0" />
  </g>
  <g
     inkscape:groupmode="layer"
     id="layer9"
     inkscape:label="Layer 5">
    <path
       style="fill:none;stroke:#000000;stroke-width:0.32664132px;stroke-linecap:butt;stroke-linejoin:miter;stroke-opacity:1"
       d="m 76.129565,61.865794 15.21253,-0.0586 -0.116122,8.320595 -15.212529,0.0586 z"
       id="path5213"
       inkscape:connector-curvature="0" />
  </g>
</svg>
